# xmcd
#
# Track frame offsets:
#	150
#	16314
#	30674
#	43040
#	58222
#	70367
#	82879
#	94915
#	108704
#	124502
#	138763
#	154655
#	166773
#	186432
#	205227
#	221754
#	234428
#	250835
#	269998
#	285274
#	295242
#	308624
#	319762
#
# Disc length: 4425 seconds
#
# Revision: 0
# Processed by: cddbd v1.5.2PL0 Copyright (c) Steve Scherf et al.
# Submitted via: EasyCDDAExtractor 16.0.6.1
#
DISCID=4f114717
DTITLE=Tapio Heinonen - en kadu mit‰‰n - kaikki levytykset cd 4
DYEAR=1900
DGENRE=
TTITLE0=Meksikoon
TTITLE1=Preerian t‰htitaivas
TTITLE2=Tieni l‰nteen toi
TTITLE3=Sua niin rakastin
TTITLE4=Pienen pojan haaveet
TTITLE5=Mun t‰ytyis sanata lˆyt‰‰
TTITLE6=Niin mielell‰ni
TTITLE7=Nyt j‰t‰n vanhan turun
TTITLE8=Rakovalkealla
TTITLE9=Sen verran mustalaista
TTITLE10=Kun unen n‰‰n
TTITLE11=Paikka auringossa
TTITLE12=Kulta-aikaan
TTITLE13=N‰in kun rakastaa
TTITLE14=Pikku rumpalipoika
TTITLE15=Auringon lapset
TTITLE16=K‰ymme luokses jordan
TTITLE17=Tunteeko h‰n
TTITLE18=S‰ muistatko mets‰tien
TTITLE19=Pieni kansanlaulu
TTITLE20=Philadelphia 1776
TTITLE21=H‰n
TTITLE22=Angelina
EXTD=
EXTT0=
EXTT1=
EXTT2=
EXTT3=
EXTT4=
EXTT5=
EXTT6=
EXTT7=
EXTT8=
EXTT9=
EXTT10=
EXTT11=
EXTT12=
EXTT13=
EXTT14=
EXTT15=
EXTT16=
EXTT17=
EXTT18=
EXTT19=
EXTT20=
EXTT21=
EXTT22=
PLAYORDER=
